%TF.GenerationSoftware,KiCad,Pcbnew,10.0.3*%
%TF.CreationDate,2026-09-10T09:37:06+05:30*%
%TF.ProjectId,BikeNavPcb,42696b65-4e61-4765-9063-622e6b696361,rev?*%
%TF.SameCoordinates,Original*%
%TF.FileFunction,Copper,L1,Top*%
%TF.FilePolarity,Positive*%
%FSLAX46Y46*%
G04 Gerber Fmt 4.6, Leading zero omitted, Abs format (unit mm)*
G04 Created by KiCad (PCBNEW 10.0.3) date 2026-09-10 09:37:06*
%MOMM*%
%LPD*%
G01*
G04 APERTURE LIST*
G04 Aperture macros list*
%AMRoundRect*
0 Rectangle with rounded corners*
0 $1 Rounding radius*
0 $2 $3 $4 $5 $6 $7 $8 $9 X,Y pos of 4 corners*
0 Add a 4 corners polygon primitive as box body*
4,1,4,$2,$3,$4,$5,$6,$7,$8,$9,$2,$3,0*
0 Add four circle primitives for the rounded corners*
1,1,$1+$1,$2,$3*
1,1,$1+$1,$4,$5*
1,1,$1+$1,$6,$7*
1,1,$1+$1,$8,$9*
0 Add four rect primitives between the rounded corners*
20,1,$1+$1,$2,$3,$4,$5,0*
20,1,$1+$1,$4,$5,$6,$7,0*
20,1,$1+$1,$6,$7,$8,$9,0*
20,1,$1+$1,$8,$9,$2,$3,0*%
G04 Aperture macros list end*
%TA.AperFunction,NonConductor*%
%ADD10C,0.200000*%
%TD*%
%TA.AperFunction,ComponentPad*%
%ADD11R,1.700000X1.700000*%
%TD*%
%TA.AperFunction,ComponentPad*%
%ADD12C,1.700000*%
%TD*%
%TA.AperFunction,ComponentPad*%
%ADD13C,1.400000*%
%TD*%
%TA.AperFunction,ComponentPad*%
%ADD14R,2.800000X2.800000*%
%TD*%
%TA.AperFunction,ComponentPad*%
%ADD15C,1.348000*%
%TD*%
%TA.AperFunction,SMDPad,CuDef*%
%ADD16RoundRect,0.190000X0.610000X0.190000X-0.610000X0.190000X-0.610000X-0.190000X0.610000X-0.190000X0*%
%TD*%
%TA.AperFunction,ComponentPad*%
%ADD17C,1.600000*%
%TD*%
%TA.AperFunction,Conductor*%
%ADD18C,0.300000*%
%TD*%
%TA.AperFunction,Conductor*%
%ADD19C,0.500000*%
%TD*%
%TA.AperFunction,Conductor*%
%ADD20C,0.200000*%
%TD*%
G04 APERTURE END LIST*
D10*
X117000000Y-82000000D02*
X176000000Y-82000000D01*
X176000000Y-116000000D01*
X117000000Y-116000000D01*
X117000000Y-82000000D01*
D11*
%TO.P,J9,1,Pin_1_1*%
%TO.N,/BACKLIGHT*%
X120100000Y-107690000D03*
D12*
%TO.P,J9,2,Pin_2_2*%
%TO.N,/SCK*%
X120100000Y-105150000D03*
%TO.P,J9,3,Pin_3_3*%
%TO.N,/SDA*%
X120100000Y-102610000D03*
%TO.P,J9,4,Pin_4_4*%
%TO.N,/A0*%
X120100000Y-100070000D03*
%TO.P,J9,5,Pin_5_5*%
%TO.N,/RESET*%
X120100000Y-97530000D03*
%TO.P,J9,6,Pin_6_6*%
%TO.N,/CS*%
X120100000Y-94990000D03*
%TO.P,J9,7,Pin_7_7*%
%TO.N,/OUT-*%
X120100000Y-92450000D03*
%TO.P,J9,8,Pin_8_8*%
%TO.N,/OUT+*%
X120100000Y-89910000D03*
%TD*%
D13*
%TO.P,R2,1*%
%TO.N,Net-(C1-Pad2)*%
X149150000Y-96410000D03*
%TO.P,R2,2*%
%TO.N,/OUT-*%
X149150000Y-101490000D03*
%TD*%
D14*
%TO.P,U1,1,IN+_1*%
%TO.N,+5V*%
X168612500Y-84737500D03*
%TO.P,U1,2,IN-_2*%
%TO.N,GND*%
X154412500Y-84737500D03*
%TO.P,U1,3,OUT+_3*%
%TO.N,Net-(SW1A-A)*%
X168612500Y-107637500D03*
%TO.P,U1,4,OUT-_4*%
%TO.N,/OUT-*%
X154112500Y-107637500D03*
%TO.P,U1,5,BAT+_5*%
%TO.N,/BAT+*%
X165112500Y-107637500D03*
%TO.P,U1,6,BAT-_6*%
%TO.N,/BAT-*%
X157512500Y-107637500D03*
%TD*%
D13*
%TO.P,R1,1*%
%TO.N,/BATT EST*%
X145900000Y-97760000D03*
%TO.P,R1,2*%
%TO.N,/OUT+*%
X145900000Y-102840000D03*
%TD*%
D15*
%TO.P,U2,0,GPIO0_0*%
%TO.N,/BATT EST*%
X125460000Y-95150000D03*
%TO.P,U2,1,GPIO1_1*%
%TO.N,unconnected-(U2-GPIO1-Pad1)*%
X125460000Y-97690000D03*
%TO.P,U2,2,GPIO2_2*%
%TO.N,/A0*%
X125460000Y-100230000D03*
%TO.P,U2,3,GPIO3_3*%
%TO.N,/RESET*%
X125460000Y-102770000D03*
%TO.P,U2,3.3,3V3_3.3*%
%TO.N,/BACKLIGHT*%
X125460000Y-107850000D03*
%TO.P,U2,4,GPIO4_4*%
%TO.N,/SCK*%
X125460000Y-105310000D03*
%TO.P,U2,5,GPIO5_5*%
%TO.N,unconnected-(U2-GPIO5-Pad5)*%
X140700000Y-112930000D03*
%TO.P,U2,5V,5V_5V*%
%TO.N,/OUT+*%
X125460000Y-112930000D03*
%TO.P,U2,6,GPIO6_6*%
%TO.N,/SDA*%
X140700000Y-110390000D03*
%TO.P,U2,7,GPIO7_7*%
%TO.N,/CS*%
X140700000Y-107850000D03*
%TO.P,U2,8,GPIO8_8*%
%TO.N,unconnected-(U2-GPIO8-Pad8)*%
X140700000Y-105310000D03*
%TO.P,U2,9,GPIO9_9*%
%TO.N,unconnected-(U2-GPIO9-Pad9)*%
X140700000Y-102770000D03*
%TO.P,U2,10,GPIO10_10*%
%TO.N,unconnected-(U2-GPIO10-Pad10)*%
X140700000Y-100230000D03*
%TO.P,U2,20,GPIO20_20*%
%TO.N,unconnected-(U2-GPIO20-Pad20)*%
X140700000Y-97690000D03*
%TO.P,U2,21,GPIO21_21*%
%TO.N,unconnected-(U2-GPIO21-Pad21)*%
X140700000Y-95150000D03*
%TO.P,U2,G,GND_G*%
%TO.N,/OUT-*%
X125460000Y-110390000D03*
%TD*%
D16*
%TO.P,SW1,1,A_1*%
%TO.N,Net-(SW1A-A)*%
X149840000Y-109550000D03*
%TO.P,SW1,2,B_2*%
%TO.N,/OUT+*%
X144760000Y-109550000D03*
%TD*%
D17*
%TO.P,C1,1*%
%TO.N,/BATT EST*%
X146150000Y-89050000D03*
%TO.P,C1,2*%
%TO.N,Net-(C1-Pad2)*%
X148650000Y-89050000D03*
%TD*%
%TO.N,/OUT-*%
D18*
X145800000Y-101490000D02*
X145310000Y-101490000D01*
X143000000Y-103800000D02*
X143000000Y-112800000D01*
X145310000Y-101490000D02*
X143000000Y-103800000D01*
D19*
X120100000Y-92450000D02*
X118600000Y-90950000D01*
D18*
X150637500Y-107637500D02*
X151537500Y-107637500D01*
X123200000Y-89650000D02*
X123200000Y-108150000D01*
D19*
X145800000Y-101490000D02*
X149150000Y-101490000D01*
D18*
X125440000Y-110390000D02*
X125460000Y-110390000D01*
X131300000Y-114050000D02*
X127640000Y-110390000D01*
D19*
X149150000Y-104650000D02*
X149150000Y-101490000D01*
D18*
X118600000Y-90950000D02*
X118600000Y-88900000D01*
X118600000Y-88900000D02*
X119400000Y-88100000D01*
X119400000Y-88100000D02*
X121650000Y-88100000D01*
X143000000Y-112800000D02*
X141750000Y-114050000D01*
D19*
X154112500Y-107637500D02*
X151537500Y-107637500D01*
D18*
X149150000Y-106150000D02*
X150637500Y-107637500D01*
X121650000Y-88100000D02*
X123200000Y-89650000D01*
D19*
X123200000Y-108150000D02*
X125440000Y-110390000D01*
X125460000Y-110390000D02*
X127640000Y-110390000D01*
D18*
X141750000Y-114050000D02*
X131300000Y-114050000D01*
X149150000Y-104650000D02*
X149150000Y-106150000D01*
%TO.N,/OUT+*%
D19*
X122450000Y-109920000D02*
X125460000Y-112930000D01*
D18*
X122450000Y-92260000D02*
X122450000Y-109920000D01*
X142550000Y-114700000D02*
X144760000Y-112490000D01*
D19*
X144760000Y-106110000D02*
X144760000Y-109550000D01*
D18*
X130950000Y-114700000D02*
X142550000Y-114700000D01*
X129180000Y-112930000D02*
X130950000Y-114700000D01*
X144750000Y-106100000D02*
X144760000Y-106110000D01*
D19*
X144760000Y-112490000D02*
X144760000Y-109550000D01*
D18*
X145900000Y-104950000D02*
X144750000Y-106100000D01*
D19*
X120100000Y-89910000D02*
X122450000Y-92260000D01*
X145900000Y-102840000D02*
X145900000Y-104950000D01*
X125460000Y-112930000D02*
X129180000Y-112930000D01*
%TO.N,Net-(C1-Pad2)*%
D18*
X149900000Y-90450000D02*
X149900000Y-95660000D01*
D19*
X149150000Y-96410000D02*
X149900000Y-95660000D01*
X148550000Y-89100000D02*
X149900000Y-90450000D01*
%TO.N,Net-(SW1A-A)*%
X166350000Y-110500000D02*
X168612500Y-108237500D01*
X151250000Y-109550000D02*
X152200000Y-110500000D01*
X149840000Y-109550000D02*
X151250000Y-109550000D01*
D20*
X168612500Y-108237500D02*
X168612500Y-107637500D01*
D18*
X152200000Y-110500000D02*
X166350000Y-110500000D01*
%TO.N,/BATT EST*%
X146850000Y-91800000D02*
X146850000Y-94600000D01*
D19*
X146850000Y-96810000D02*
X145900000Y-97760000D01*
D18*
X141850000Y-91050000D02*
X143850000Y-89050000D01*
D19*
X125460000Y-95150000D02*
X129560000Y-91050000D01*
D18*
X146150000Y-91100000D02*
X146850000Y-91800000D01*
X146850000Y-94600000D02*
X146850000Y-96810000D01*
X129560000Y-91050000D02*
X141850000Y-91050000D01*
D19*
X143850000Y-89050000D02*
X146150000Y-89050000D01*
X146150000Y-89050000D02*
X146150000Y-91100000D01*
%TD*%
M02*
