M48
; DRILL file KiCad 10.0.3 date 2026-09-10T09:36:39
; FORMAT={-:-/ absolute / metric / decimal}
; #@! TF.CreationDate,2026-09-10T09:36:39+05:30
; #@! TF.GenerationSoftware,Kicad,Pcbnew,10.0.3
; #@! TF.FileFunction,Plated,1,2,PTH
FMAT,2
METRIC
; #@! TA.AperFunction,Plated,PTH,ComponentDrill
T1C0.700
; #@! TA.AperFunction,Plated,PTH,ComponentDrill
T2C0.800
; #@! TA.AperFunction,Plated,PTH,ComponentDrill
T3C0.840
; #@! TA.AperFunction,Plated,PTH,ComponentDrill
T4C1.000
; #@! TA.AperFunction,Plated,PTH,ComponentDrill
T5C1.540
%
G90
G05
T1
X145.9Y-97.76
X145.9Y-102.84
X149.15Y-96.41
X149.15Y-101.49
T2
X146.15Y-89.05
X148.65Y-89.05
T3
X125.46Y-95.15
X125.46Y-97.69
X125.46Y-100.23
X125.46Y-102.77
X125.46Y-105.31
X125.46Y-107.85
X125.46Y-110.39
X125.46Y-112.93
X140.7Y-95.15
X140.7Y-97.69
X140.7Y-100.23
X140.7Y-102.77
X140.7Y-105.31
X140.7Y-107.85
X140.7Y-110.39
X140.7Y-112.93
T4
X120.1Y-89.91
X120.1Y-92.45
X120.1Y-94.99
X120.1Y-97.53
X120.1Y-100.07
X120.1Y-102.61
X120.1Y-105.15
X120.1Y-107.69
T5
X154.112Y-107.637
X154.412Y-84.737
X157.512Y-107.637
X165.112Y-107.637
X168.612Y-84.737
X168.612Y-107.637
M30
