%TF.GenerationSoftware,KiCad,Pcbnew,10.0.3*%
%TF.CreationDate,2026-09-10T09:37:06+05:30*%
%TF.ProjectId,BikeNavPcb,42696b65-4e61-4765-9063-622e6b696361,rev?*%
%TF.SameCoordinates,Original*%
%TF.FileFunction,Soldermask,Bot*%
%TF.FilePolarity,Negative*%
%FSLAX46Y46*%
G04 Gerber Fmt 4.6, Leading zero omitted, Abs format (unit mm)*
G04 Created by KiCad (PCBNEW 10.0.3) date 2026-09-10 09:37:06*
%MOMM*%
%LPD*%
G01*
G04 APERTURE LIST*
%ADD10C,2.200000*%
%ADD11R,1.700000X1.700000*%
%ADD12C,1.700000*%
%ADD13C,1.400000*%
%ADD14R,2.800000X2.800000*%
%ADD15C,1.552000*%
%ADD16C,1.600000*%
G04 APERTURE END LIST*
D10*
%TO.C,REF\u002A\u002A*%
X121100000Y-84750000D03*
%TD*%
D11*
%TO.C,J9*%
X120100000Y-107690000D03*
D12*
X120100000Y-105150000D03*
X120100000Y-102610000D03*
X120100000Y-100070000D03*
X120100000Y-97530000D03*
X120100000Y-94990000D03*
X120100000Y-92450000D03*
X120100000Y-89910000D03*
%TD*%
D13*
%TO.C,R2*%
X149150000Y-96410000D03*
X149150000Y-101490000D03*
%TD*%
D14*
%TO.C,U1*%
X168612500Y-84737500D03*
X154412500Y-84737500D03*
X168612500Y-107637500D03*
X154112500Y-107637500D03*
X165112500Y-107637500D03*
X157512500Y-107637500D03*
%TD*%
D13*
%TO.C,R1*%
X145900000Y-97760000D03*
X145900000Y-102840000D03*
%TD*%
D10*
%TO.C,REF\u002A\u002A*%
X173100000Y-113150000D03*
%TD*%
%TO.C,REF\u002A\u002A*%
X121050000Y-113250000D03*
%TD*%
D15*
%TO.C,U2*%
X125460000Y-95150000D03*
X125460000Y-97690000D03*
X125460000Y-100230000D03*
X125460000Y-102770000D03*
X125460000Y-107850000D03*
X125460000Y-105310000D03*
X140700000Y-112930000D03*
X125460000Y-112930000D03*
X140700000Y-110390000D03*
X140700000Y-107850000D03*
X140700000Y-105310000D03*
X140700000Y-102770000D03*
X140700000Y-100230000D03*
X140700000Y-97690000D03*
X140700000Y-95150000D03*
X125460000Y-110390000D03*
%TD*%
D10*
%TO.C,REF\u002A\u002A*%
X173100000Y-84750000D03*
%TD*%
D16*
%TO.C,C1*%
X146150000Y-89050000D03*
X148650000Y-89050000D03*
%TD*%
M02*
