%TF.GenerationSoftware,KiCad,Pcbnew,10.0.3*%
%TF.CreationDate,2026-09-10T09:37:06+05:30*%
%TF.ProjectId,BikeNavPcb,42696b65-4e61-4765-9063-622e6b696361,rev?*%
%TF.SameCoordinates,Original*%
%TF.FileFunction,Copper,L2,Bot*%
%TF.FilePolarity,Positive*%
%FSLAX46Y46*%
G04 Gerber Fmt 4.6, Leading zero omitted, Abs format (unit mm)*
G04 Created by KiCad (PCBNEW 10.0.3) date 2026-09-10 09:37:06*
%MOMM*%
%LPD*%
G01*
G04 APERTURE LIST*
%TA.AperFunction,ComponentPad*%
%ADD10R,1.700000X1.700000*%
%TD*%
%TA.AperFunction,ComponentPad*%
%ADD11C,1.700000*%
%TD*%
%TA.AperFunction,ComponentPad*%
%ADD12C,1.400000*%
%TD*%
%TA.AperFunction,ComponentPad*%
%ADD13R,2.800000X2.800000*%
%TD*%
%TA.AperFunction,ComponentPad*%
%ADD14C,1.348000*%
%TD*%
%TA.AperFunction,ComponentPad*%
%ADD15C,1.600000*%
%TD*%
%TA.AperFunction,Conductor*%
%ADD16C,0.500000*%
%TD*%
%TA.AperFunction,Conductor*%
%ADD17C,0.300000*%
%TD*%
G04 APERTURE END LIST*
D10*
%TO.P,J9,1,Pin_1_1*%
%TO.N,/BACKLIGHT*%
X120100000Y-107690000D03*
D11*
%TO.P,J9,2,Pin_2_2*%
%TO.N,/SCK*%
X120100000Y-105150000D03*
%TO.P,J9,3,Pin_3_3*%
%TO.N,/SDA*%
X120100000Y-102610000D03*
%TO.P,J9,4,Pin_4_4*%
%TO.N,/A0*%
X120100000Y-100070000D03*
%TO.P,J9,5,Pin_5_5*%
%TO.N,/RESET*%
X120100000Y-97530000D03*
%TO.P,J9,6,Pin_6_6*%
%TO.N,/CS*%
X120100000Y-94990000D03*
%TO.P,J9,7,Pin_7_7*%
%TO.N,/OUT-*%
X120100000Y-92450000D03*
%TO.P,J9,8,Pin_8_8*%
%TO.N,/OUT+*%
X120100000Y-89910000D03*
%TD*%
D12*
%TO.P,R2,1*%
%TO.N,Net-(C1-Pad2)*%
X149150000Y-96410000D03*
%TO.P,R2,2*%
%TO.N,/OUT-*%
X149150000Y-101490000D03*
%TD*%
D13*
%TO.P,U1,1,IN+_1*%
%TO.N,+5V*%
X168612500Y-84737500D03*
%TO.P,U1,2,IN-_2*%
%TO.N,GND*%
X154412500Y-84737500D03*
%TO.P,U1,3,OUT+_3*%
%TO.N,Net-(SW1A-A)*%
X168612500Y-107637500D03*
%TO.P,U1,4,OUT-_4*%
%TO.N,/OUT-*%
X154112500Y-107637500D03*
%TO.P,U1,5,BAT+_5*%
%TO.N,/BAT+*%
X165112500Y-107637500D03*
%TO.P,U1,6,BAT-_6*%
%TO.N,/BAT-*%
X157512500Y-107637500D03*
%TD*%
D12*
%TO.P,R1,1*%
%TO.N,/BATT EST*%
X145900000Y-97760000D03*
%TO.P,R1,2*%
%TO.N,/OUT+*%
X145900000Y-102840000D03*
%TD*%
D14*
%TO.P,U2,0,GPIO0_0*%
%TO.N,/BATT EST*%
X125460000Y-95150000D03*
%TO.P,U2,1,GPIO1_1*%
%TO.N,unconnected-(U2-GPIO1-Pad1)*%
X125460000Y-97690000D03*
%TO.P,U2,2,GPIO2_2*%
%TO.N,/A0*%
X125460000Y-100230000D03*
%TO.P,U2,3,GPIO3_3*%
%TO.N,/RESET*%
X125460000Y-102770000D03*
%TO.P,U2,3.3,3V3_3.3*%
%TO.N,/BACKLIGHT*%
X125460000Y-107850000D03*
%TO.P,U2,4,GPIO4_4*%
%TO.N,/SCK*%
X125460000Y-105310000D03*
%TO.P,U2,5,GPIO5_5*%
%TO.N,unconnected-(U2-GPIO5-Pad5)*%
X140700000Y-112930000D03*
%TO.P,U2,5V,5V_5V*%
%TO.N,/OUT+*%
X125460000Y-112930000D03*
%TO.P,U2,6,GPIO6_6*%
%TO.N,/SDA*%
X140700000Y-110390000D03*
%TO.P,U2,7,GPIO7_7*%
%TO.N,/CS*%
X140700000Y-107850000D03*
%TO.P,U2,8,GPIO8_8*%
%TO.N,unconnected-(U2-GPIO8-Pad8)*%
X140700000Y-105310000D03*
%TO.P,U2,9,GPIO9_9*%
%TO.N,unconnected-(U2-GPIO9-Pad9)*%
X140700000Y-102770000D03*
%TO.P,U2,10,GPIO10_10*%
%TO.N,unconnected-(U2-GPIO10-Pad10)*%
X140700000Y-100230000D03*
%TO.P,U2,20,GPIO20_20*%
%TO.N,unconnected-(U2-GPIO20-Pad20)*%
X140700000Y-97690000D03*
%TO.P,U2,21,GPIO21_21*%
%TO.N,unconnected-(U2-GPIO21-Pad21)*%
X140700000Y-95150000D03*
%TO.P,U2,G,GND_G*%
%TO.N,/OUT-*%
X125460000Y-110390000D03*
%TD*%
D15*
%TO.P,C1,1*%
%TO.N,/BATT EST*%
X146150000Y-89050000D03*
%TO.P,C1,2*%
%TO.N,Net-(C1-Pad2)*%
X148650000Y-89050000D03*
%TD*%
%TO.N,/BACKLIGHT*%
D16*
X120100000Y-107690000D02*
X125300000Y-107690000D01*
D17*
X125300000Y-107690000D02*
X125460000Y-107850000D01*
%TO.N,/SCK*%
D16*
X120100000Y-105150000D02*
X125300000Y-105150000D01*
D17*
X125300000Y-105150000D02*
X125460000Y-105310000D01*
%TO.N,/SDA*%
D16*
X120100000Y-102610000D02*
X118050000Y-104660000D01*
D17*
X118050000Y-104660000D02*
X118050000Y-108450000D01*
X124600000Y-114650000D02*
X136440000Y-114650000D01*
X122750000Y-109950000D02*
X124000000Y-111200000D01*
X119550000Y-109950000D02*
X122750000Y-109950000D01*
X124000000Y-111200000D02*
X124000000Y-114050000D01*
D16*
X136440000Y-114650000D02*
X140700000Y-110390000D01*
D17*
X118050000Y-108450000D02*
X119550000Y-109950000D01*
X124000000Y-114050000D02*
X124600000Y-114650000D01*
%TO.N,/A0*%
D16*
X120100000Y-100070000D02*
X125300000Y-100070000D01*
D17*
X125300000Y-100070000D02*
X125460000Y-100230000D01*
%TO.N,/RESET*%
X124430000Y-93200000D02*
X126800000Y-93200000D01*
X127350000Y-93750000D02*
X127350000Y-100880000D01*
D16*
X120100000Y-97530000D02*
X124430000Y-93200000D01*
D17*
X126800000Y-93200000D02*
X127350000Y-93750000D01*
D16*
X127350000Y-100880000D02*
X125460000Y-102770000D01*
%TO.N,/CS*%
D17*
X135000000Y-90150000D02*
X135000000Y-102150000D01*
X124940000Y-90150000D02*
X135000000Y-90150000D01*
D16*
X120100000Y-94990000D02*
X124940000Y-90150000D01*
X135000000Y-102150000D02*
X140700000Y-107850000D01*
%TD*%
M02*
